<svg xmlns="http://www.w3.org/2000/svg" width="249.697" height="71" viewBox="0 10 249.697 71" enable-background="new 0 10 249.697 71"><path fill="#FFA600" d="M15.976 39.401c1.885 0 3.538-.479 4.959-1.434 1.42-.956 2.476-2.244 3.167-3.864h3.146c-.876 2.496-2.324 4.461-4.341 5.896-2.151 1.54-4.687 2.31-7.608 2.31-3.851 0-6.97-1.313-9.359-3.942-2.257-2.522-3.386-5.709-3.386-9.559 0-3.851 1.128-7.037 3.386-9.56 2.39-2.629 5.51-3.943 9.359-3.943 2.922 0 5.457.771 7.608 2.311 2.018 1.435 3.465 3.399 4.341 5.896h-3.146c-.691-1.619-1.747-2.908-3.167-3.863-1.421-.956-3.074-1.435-4.959-1.435-1.887 0-3.452.272-4.7.816-1.249.545-2.297 1.295-3.146 2.251-1.727 1.938-2.589 4.448-2.589 7.528 0 3.08.863 5.59 2.589 7.527 1.805 2.043 4.421 3.065 7.846 3.065z" enable-background="new"/><g enable-background="new" fill="#312A1E"><path d="M46.606 38.804c-1.593 2.337-3.97 3.505-7.13 3.505-2.868 0-5.205-.994-7.011-2.986-1.752-1.965-2.628-4.396-2.628-7.289 0-2.894.876-5.323 2.628-7.289 1.807-1.991 4.208-2.987 7.209-2.987 3 0 5.312 1.182 6.932 3.545v-3.226h2.986v19.913h-2.986v-3.186zm-6.731.797c2.151 0 3.851-.743 5.1-2.23 1.194-1.407 1.792-3.187 1.792-5.338 0-2.15-.598-3.93-1.792-5.337-1.249-1.487-2.948-2.23-5.1-2.23-2.125 0-3.851.743-5.178 2.23-1.249 1.407-1.872 3.187-1.872 5.337 0 2.151.624 3.931 1.872 5.338 1.327 1.486 3.053 2.23 5.178 2.23zM56.922 41.99v-17.287h-4.062v-2.628h4.062v-7.13h2.987v7.13h4.581v2.628h-4.581v17.287h-2.987zM70.742 14.108v11.073c.717-.956 1.593-1.766 2.629-2.43 1.036-.663 2.217-.996 3.545-.996s2.471.187 3.426.558c.956.372 1.792.93 2.51 1.673 1.646 1.62 2.469 3.758 2.469 6.413v11.591h-2.987v-11.511c0-1.833-.518-3.293-1.553-4.382-1.035-1.089-2.377-1.633-4.023-1.633-1.673 0-3.094.558-4.262 1.673-1.169 1.143-1.753 2.604-1.753 4.381v11.472h-2.987v-27.882h2.986zM95.08 49.877h-3.227l3.625-8.166-8.125-19.636h3.306l6.413 16.33 6.532-16.33h3.267l-11.791 27.802z"/></g><path fill="#FFA600" d="M130.329 15.622c1.566 0 3.08.299 4.541.896 1.46.598 2.748 1.467 3.863 2.608 2.47 2.523 3.705 5.75 3.705 9.68 0 3.93-1.235 7.156-3.705 9.679-1.115 1.142-2.403 2.011-3.863 2.608-1.461.599-2.975.896-4.541.896h-11.113v-26.367h11.113zm-.119 23.54c2.763 0 5.005-1.021 6.731-3.066 1.673-1.965 2.509-4.395 2.509-7.289s-.836-5.324-2.509-7.289c-1.728-2.045-3.97-3.067-6.731-3.067h-8.006v20.712l8.006-.001z" enable-background="new"/><g enable-background="new" fill="#312A1E"><path d="M160.999 41.99v-3.106c-.717.956-1.593 1.766-2.629 2.431-1.035.664-2.217.994-3.545.994s-2.469-.186-3.426-.558c-.955-.371-1.792-.929-2.509-1.673-1.647-1.619-2.471-3.757-2.471-6.412v-11.591h2.987v11.511c0 1.832.519 3.293 1.554 4.382 1.035 1.089 2.376 1.633 4.023 1.633 1.672 0 3.093-.558 4.262-1.673 1.168-1.142 1.752-2.603 1.752-4.382v-11.471h2.988v19.915h-2.986zM171.315 41.99v-17.287h-4.062v-2.628h4.062v-7.13h2.985v7.13h4.581v2.628h-4.581v17.287h-2.985zM184.3 41.99v-17.287h-4.062v-2.628h4.062v-7.13h2.986v7.13h4.581v2.628h-4.581v17.287h-2.986zM203.378 21.756c2.976 0 5.392.996 7.25 2.987 1.752 1.912 2.629 4.342 2.629 7.289s-.877 5.378-2.629 7.289c-1.858 1.991-4.274 2.987-7.25 2.987-2.974 0-5.391-.996-7.249-2.987-1.753-1.911-2.628-4.342-2.628-7.289s.875-5.377 2.628-7.289c1.858-1.991 4.275-2.987 7.249-2.987zm0 17.845c2.151 0 3.851-.743 5.1-2.23 1.194-1.407 1.792-3.187 1.792-5.338 0-2.15-.598-3.93-1.792-5.337-1.249-1.487-2.947-2.23-5.1-2.23-2.149 0-3.85.743-5.098 2.23-1.195 1.407-1.793 3.187-1.793 5.337 0 2.151.598 3.931 1.793 5.338 1.248 1.486 2.947 2.23 5.098 2.23zM220.186 22.075v3.106c.718-.956 1.594-1.766 2.629-2.43 1.036-.663 2.217-.996 3.545-.996s2.471.187 3.426.558c.956.372 1.793.93 2.51 1.673 1.646 1.62 2.47 3.758 2.47 6.413v11.591h-2.986v-11.511c0-1.833-.518-3.293-1.554-4.382-1.036-1.089-2.377-1.633-4.022-1.633-1.674 0-3.094.558-4.262 1.673-1.17 1.143-1.754 2.604-1.754 4.381v11.472h-2.988v-19.915h2.986z"/></g><g enable-background="new" fill="#FFA600"><path d="M5.132 66.547l-2.643-9.959h1.352l1.516 6.528c.163.684.303 1.362.421 2.038.253-1.064.403-1.678.448-1.842l1.896-6.726h1.588l1.428 5.041c.356 1.25.615 2.425.773 3.524.126-.629.292-1.352.496-2.166l1.562-6.399h1.324l-2.729 9.959h-1.271l-2.099-7.588c-.177-.635-.281-1.022-.312-1.169-.104.458-.201.847-.292 1.169l-2.112 7.588-1.346.002zM17.539 66.547v-9.959h7.201v1.175h-5.883v3.052h5.509v1.168h-5.509v3.391h6.114v1.175l-7.432-.002zM27.725 66.547v-9.959h3.735c.762 0 1.371.102 1.831.303s.82.512 1.081.932c.26.419.392.855.392 1.313 0 .427-.116.826-.348 1.202-.23.376-.58.68-1.046.91.604.177 1.065.479 1.391.902.323.427.484.93.484 1.51 0 .466-.098.898-.295 1.301-.197.4-.439.71-.729.927-.29.218-.653.382-1.091.493-.438.11-.973.166-1.606.166h-3.799zm1.318-5.776h2.153c.584 0 1.003-.037 1.257-.114.335-.101.588-.265.758-.496.169-.231.254-.521.254-.869 0-.331-.078-.622-.237-.873-.158-.252-.386-.424-.68-.517-.294-.094-.799-.141-1.515-.141h-1.99v3.01zm0 4.601h2.479c.426 0 .725-.017.896-.048.304-.055.558-.146.762-.271.203-.127.37-.312.502-.554.131-.242.196-.522.196-.839 0-.372-.095-.694-.284-.969-.19-.273-.454-.467-.792-.577-.339-.111-.823-.166-1.458-.166h-2.304v3.424h.003zM42.9 66.547v-9.959h3.431c.774 0 1.366.048 1.773.143.57.133 1.058.369 1.461.713.524.444.918 1.013 1.179 1.703.26.689.391 1.479.391 2.366 0 .757-.088 1.427-.265 2.011-.177.586-.403 1.068-.679 1.451s-.579.685-.907.903c-.328.22-.725.386-1.188.499-.465.113-.998.17-1.601.17h-3.595zm1.318-1.175h2.127c.656 0 1.172-.062 1.545-.185.373-.121.671-.295.894-.517.312-.312.556-.731.73-1.26.174-.528.262-1.168.262-1.92 0-1.041-.171-1.843-.513-2.401-.343-.559-.759-.934-1.247-1.124-.354-.136-.923-.204-1.706-.204h-2.093l.001 7.611zM53.963 66.547v-9.959h7.201v1.175h-5.883v3.052h5.509v1.168h-5.509v3.391h6.114v1.175l-7.432-.002zM63.755 63.348l1.243-.108c.06.498.196.907.411 1.227s.549.577 1.002.774.962.295 1.528.295c.503 0 .947-.074 1.332-.225.385-.149.671-.354.858-.614.188-.261.282-.544.282-.854 0-.312-.091-.585-.271-.817-.182-.233-.48-.43-.896-.588-.268-.104-.857-.267-1.772-.485-.915-.22-1.557-.427-1.923-.622-.476-.249-.829-.559-1.062-.928-.233-.368-.35-.781-.35-1.239 0-.502.143-.972.428-1.409s.702-.77 1.25-.995c.548-.227 1.157-.34 1.827-.34.737 0 1.389.119 1.953.356.563.237.997.588 1.301 1.05s.467.985.488 1.569l-1.264.095c-.067-.63-.298-1.104-.688-1.427-.393-.321-.971-.481-1.736-.481-.797 0-1.378.146-1.742.438-.365.291-.547.645-.547 1.057 0 .357.129.652.387.883.253.23.916.468 1.987.71s1.806.454 2.205.636c.58.268 1.008.605 1.284 1.017.275.409.414.882.414 1.415 0 .531-.152 1.029-.455 1.498-.304.47-.739.834-1.309 1.095-.568.261-1.208.388-1.92.388-.9 0-1.655-.132-2.265-.395-.609-.262-1.087-.657-1.435-1.186-.345-.529-.527-1.125-.545-1.79zM74.695 66.547v-9.959h1.318v9.959h-1.318zM83.984 62.641v-1.168l4.219-.007v3.695c-.646.517-1.314.903-2.004 1.165-.688.261-1.395.391-2.12.391-.978 0-1.867-.21-2.667-.629-.799-.418-1.403-1.023-1.81-1.816-.408-.793-.612-1.679-.612-2.655 0-.97.203-1.874.608-2.714.404-.842.987-1.465 1.749-1.872.761-.407 1.637-.611 2.629-.611.72 0 1.371.116 1.953.351.582.233 1.039.559 1.368.976.331.416.582.96.755 1.63l-1.189.326c-.149-.508-.335-.906-.557-1.195-.223-.29-.539-.521-.951-.695-.412-.176-.87-.263-1.373-.263-.603 0-1.123.093-1.562.275-.438.183-.793.424-1.062.723-.271.299-.479.628-.628.985-.253.615-.38 1.283-.38 2.004 0 .888.152 1.631.458 2.229.305.599.751 1.043 1.335 1.331.584.29 1.205.437 1.86.437.571 0 1.128-.11 1.671-.33.543-.221.956-.454 1.236-.703v-1.854h-2.926v-.006zM91.119 66.547v-9.959h1.353l5.23 7.819v-7.819h1.264v9.959h-1.352l-5.231-7.826v7.826h-1.264zM102.196 66.547v-9.959h7.201v1.175h-5.883v3.052h5.509v1.168h-5.509v3.391h6.113v1.175l-7.431-.002zM112.456 66.547v-9.959h4.416c.889 0 1.562.09 2.024.27.462.179.831.494 1.106.946.276.453.415.953.415 1.501 0 .707-.229 1.303-.686 1.787-.458.484-1.164.793-2.12.924.349.168.613.334.795.496.385.354.75.795 1.094 1.324l1.732 2.711h-1.657l-1.318-2.072c-.385-.598-.701-1.055-.95-1.371-.25-.316-.473-.539-.669-.666-.197-.127-.397-.215-.602-.266-.148-.031-.394-.048-.733-.048h-1.528v4.423h-1.319zm1.318-5.565h2.833c.602 0 1.073-.062 1.413-.188.339-.124.598-.322.773-.598.177-.273.266-.571.266-.895 0-.471-.171-.856-.514-1.16-.342-.305-.882-.455-1.62-.455h-3.151v3.296zM133.86 65.372c-.402.448-.842.784-1.317 1.009s-.988.336-1.542.336c-1.02 0-1.828-.344-2.426-1.031-.484-.562-.727-1.189-.727-1.883 0-.615.197-1.172.595-1.668.396-.496.988-.932 1.776-1.308-.448-.517-.748-.937-.896-1.257-.15-.321-.225-.633-.225-.932 0-.598.233-1.117.702-1.56.47-.442 1.06-.662 1.771-.662.68 0 1.235.208 1.668.625s.648.917.648 1.501c0 .947-.628 1.756-1.882 2.426l1.786 2.275c.204-.398.362-.86.477-1.387l1.271.271c-.218.87-.513 1.586-.884 2.146.458.606.977 1.117 1.557 1.528l-.821.972c-.496-.312-1.006-.781-1.531-1.401zm-.767-.965l-2.24-2.778c-.661.395-1.107.76-1.339 1.098-.23.338-.347.672-.347 1.002 0 .402.16.821.482 1.256.321.436.775.652 1.365.652.366 0 .746-.113 1.138-.343s.706-.524.941-.887zm-1.719-4.225c.53-.312.873-.587 1.029-.822.156-.234.234-.495.234-.78 0-.34-.107-.617-.322-.832s-.483-.322-.806-.322c-.33 0-.604.106-.825.319-.22.213-.329.473-.329.779 0 .154.04.316.119.486s.197.35.355.54l.545.632zM143.445 66.547v-9.959h3.431c.774 0 1.365.048 1.773.143.57.133 1.057.369 1.461.713.525.444.918 1.013 1.178 1.703.261.689.392 1.479.392 2.366 0 .757-.089 1.427-.266 2.011-.177.586-.402 1.068-.679 1.451s-.579.685-.908.903c-.328.22-.725.386-1.188.499-.466.113-.998.17-1.602.17h-3.592zm1.317-1.175h2.127c.655 0 1.172-.062 1.545-.185.374-.121.672-.295.895-.517.312-.312.555-.731.729-1.26s.262-1.168.262-1.92c0-1.041-.171-1.843-.513-2.401-.343-.559-.759-.934-1.246-1.124-.354-.136-.922-.204-1.706-.204h-2.093v7.611zM154.508 66.547v-9.959h7.201v1.175h-5.884v3.052h5.51v1.168h-5.51v3.391h6.114v1.175l-7.431-.002zM167.594 66.547l-3.858-9.959h1.426l2.589 7.234c.208.58.383 1.124.522 1.631.154-.543.333-1.087.537-1.631l2.689-7.234h1.346l-3.899 9.959h-1.352zM175.043 66.547v-9.959h7.201v1.175h-5.884v3.052h5.51v1.168h-5.51v3.391h6.114v1.175l-7.431-.002zM185.228 66.547v-9.959h1.317v8.784h4.905v1.175h-6.222zM193.608 61.696c0-1.653.442-2.947 1.331-3.882.888-.937 2.033-1.403 3.438-1.403.919 0 1.748.22 2.486.659.738.438 1.301 1.052 1.688 1.838.387.785.58 1.677.58 2.673 0 1.01-.203 1.913-.611 2.71-.407.798-.984 1.4-1.731 1.811-.748.41-1.554.615-2.419.615-.938 0-1.774-.227-2.514-.68-.738-.452-1.297-1.07-1.678-1.854-.38-.785-.57-1.613-.57-2.487zm1.359.021c0 1.2.322 2.146.969 2.836.646.691 1.455 1.036 2.429 1.036.992 0 1.809-.349 2.449-1.046.64-.697.961-1.688.961-2.969 0-.811-.137-1.52-.411-2.123-.273-.604-.675-1.073-1.202-1.406-.526-.333-1.12-.499-1.775-.499-.934 0-1.735.32-2.408.961-.675.641-1.012 1.711-1.012 3.21zM205.818 66.547v-9.959h3.757c.661 0 1.166.031 1.515.096.489.082.899.236 1.229.465.331.229.597.55.799.961.201.412.302.865.302 1.358 0 .849-.27 1.564-.808 2.15-.539.587-1.513.88-2.922.88h-2.554v4.049h-1.318zm1.318-5.224h2.573c.853 0 1.456-.159 1.813-.476.357-.317.537-.765.537-1.34 0-.416-.105-.773-.315-1.068-.211-.297-.488-.493-.833-.588-.222-.06-.632-.09-1.229-.09h-2.547v3.562h.001zM216.113 66.547v-9.959h7.201v1.175h-5.884v3.052h5.51v1.168h-5.51v3.391h6.113v1.175l-7.43-.002zM226.374 66.547v-9.959h4.416c.889 0 1.562.09 2.024.27.462.179.831.494 1.106.946.275.453.414.953.414 1.501 0 .707-.229 1.303-.687 1.787-.457.484-1.164.793-2.119.924.349.168.613.334.795.496.385.354.749.795 1.094 1.324l1.732 2.711h-1.658l-1.317-2.072c-.385-.598-.701-1.055-.95-1.371s-.474-.539-.669-.666c-.197-.127-.397-.215-.603-.266-.148-.031-.394-.048-.732-.048h-1.528v4.423h-1.318zm1.318-5.565h2.832c.603 0 1.073-.062 1.413-.188.34-.124.598-.322.773-.598.178-.273.267-.571.267-.895 0-.471-.172-.856-.515-1.16-.342-.305-.882-.455-1.619-.455h-3.151v3.296z"/></g></svg>